#!OML:ASF C:\Vicon Data\Big\jianyuan-12\jianyuan\Session 1\Capture.male.ASF
:FULLY-SPECIFIED
:DEGREES
1
root -7.733500 16.898200 -23.999400 6.942173 3.665949 8.587926
lowerback -10.134100 -2.945100 -11.185300 
upperback 2.302030 -2.410390 -1.109440 
thorax 8.649040 -1.723000 4.660150 
lowerneck -5.593250 -4.664580 -5.908970 
upperneck 7.554460 -6.383670 6.980800 
head 3.577210 -3.050590 2.759750 
rclavicle 0.000000 0.000000 
rhumerus -47.041600 -32.892000 -70.165700 
rradius 33.592900 
rwrist 36.716600 
rhand -17.984500 -6.120230 
rfingers 0.000000 
rthumb 8.285320 -35.937800 
lclavicle 0.000000 0.000000 
lhumerus -17.271500 15.689400 86.783600 
lradius 38.516500 
lwrist -33.909800 
lhand -10.525200 5.137160 
lfingers 0.000000 
lthumb 15.477800 34.537600 
rfemur -37.268600 2.455150 6.493070 
rtibia 27.357700 
rfoot -19.679100 -7.440300 
rtoes -9.994140 
lfemur 13.777700 -1.983710 -32.399000 
ltibia 0.000000 
lfoot -15.838000 3.952630 
ltoes -31.222700 
2
root -7.756484 16.900258 -23.795055 7.127750 4.024318 8.753911
lowerback -10.439861 -3.156659 -11.329443 
upperback 2.205763 -2.638087 -1.109332 
thorax 8.768340 -1.841565 4.687065 
lowerneck -5.459675 -4.454263 -6.272947 
upperneck 7.468491 -6.110004 7.397508 
head 3.534902 -2.912393 2.965148 
rclavicle 0.000000 0.000000 
rhumerus -46.855140 -32.470107 -70.397897 
rradius 33.656922 
rwrist 36.191235 
rhand -17.727967 -6.116264 
rfingers 0.000000 
rthumb 8.532863 -35.923875 
lclavicle 0.000000 0.000000 
lhumerus -17.621234 15.953802 86.653412 
lradius 38.366643 
lwrist -33.933501 
lhand -10.423699 5.117075 
lfingers 0.000000 
lthumb 15.575640 34.509876 
rfemur -36.988252 2.399920 6.423552 
rtibia 27.960974 
rfoot -18.651590 -7.913768 
rtoes -9.259897 
lfemur 14.357182 -2.414450 -32.369380 
ltibia 0.000000 
lfoot -15.385202 4.013776 
ltoes -31.001492 
3
root -7.772712 16.901439 -23.689108 7.025495 4.164792 8.648777
lowerback -10.452896 -3.144668 -11.225201 
upperback 2.196984 -2.632518 -1.143573 
thorax 8.756981 -1.831699 4.592885 
lowerneck -5.300864 -4.448668 -6.169683 
upperneck 7.450667 -6.126677 7.459618 
head 3.503115 -2.919817 2.969958 
rclavicle 0.000000 0.000000 
rhumerus -46.937542 -32.596057 -70.454286 
rradius 33.639432 
rwrist 36.265771 
rhand -17.838962 -6.141557 
rfingers 0.000000 
rthumb 8.425722 -35.953507 
lclavicle 0.000000 0.000000 
lhumerus -17.869425 15.902532 86.494738 
lradius 38.223987 
lwrist -34.329642 
lhand -10.463177 5.030219 
lfingers 0.000000 
lthumb 15.537580 34.425989 
rfemur -36.716650 2.555050 6.593040 
rtibia 28.248871 
rfoot -17.860200 -8.464920 
rtoes -9.683425 
lfemur 14.808382 -2.537654 -32.154566 
ltibia 0.000000 
lfoot -14.905682 4.093582 
ltoes -31.811288 
4
root -7.783127 16.902394 -23.585732 7.112131 4.341557 8.604713
lowerback -10.620396 -3.179270 -11.149348 
upperback 2.144860 -2.669550 -1.135245 
thorax 8.798643 -1.845293 4.547518 
lowerneck -5.270528 -4.532832 -6.106020 
upperneck 7.537652 -6.239730 7.318964 
head 3.525747 -2.979691 2.910293 
rclavicle 0.000000 0.000000 
rhumerus -46.913147 -32.706949 -70.419454 
rradius 33.628331 
rwrist 36.248556 
rhand -17.788703 -6.249026 
rfingers 0.000000 
rthumb 8.474291 -36.058980 
lclavicle 0.000000 0.000000 
lhumerus -18.087882 16.144491 86.408903 
lradius 38.051147 
lwrist -34.754591 
lhand -10.374955 4.837156 
lfingers 0.000000 
lthumb 15.622473 34.226288 
rfemur -36.652825 2.693601 6.604151 
rtibia 28.464105 
rfoot -17.086272 -9.041147 
rtoes -10.233541 
lfemur 15.052910 -2.737876 -32.011055 
ltibia 0.000000 
lfoot -14.438608 4.159296 
ltoes -32.129048 
5
root -7.796863 16.909498 -23.483451 7.160430 4.552410 8.486075
lowerback -10.737879 -3.267785 -11.093504 
upperback 2.092106 -2.788246 -1.034782 
thorax 8.830717 -1.901005 4.598732 
lowerneck -5.151156 -4.512603 -6.301503 
upperneck 7.527640 -6.205814 7.367642 
head 3.508109 -2.968970 2.961355 
rclavicle 0.000000 0.000000 
rhumerus -46.857515 -32.599299 -70.392843 
rradius 33.675426 
rwrist 35.869089 
rhand -17.647651 -6.109673 
rfingers 0.000000 
rthumb 8.610396 -35.914096 
lclavicle 0.000000 0.000000 
lhumerus -18.316697 16.440061 86.374172 
lradius 37.888157 
lwrist -34.988384 
lhand -10.357034 4.744316 
lfingers 0.000000 
lthumb 15.639838 34.132142 
rfemur -36.488816 2.782032 6.741033 
rtibia 28.605034 
rfoot -16.518664 -9.468815 
rtoes -10.309779 
lfemur 15.364335 -2.968413 -31.739504 
ltibia 0.000000 
lfoot -14.082575 4.108332 
ltoes -32.071322 
6
root -7.814636 16.918829 -23.378741 7.110100 4.685799 8.208070
lowerback -10.810313 -3.252763 -10.837496 
upperback 2.093828 -2.795979 -0.980644 
thorax 8.862880 -1.893724 4.510800 
lowerneck -5.240512 -4.525533 -6.218018 
upperneck 7.666413 -6.229354 7.309958 
head 3.561921 -2.978105 2.925968 
rclavicle 0.000000 0.000000 
rhumerus -46.810531 -32.619484 -70.480205 
rradius 33.711788 
rwrist 35.574307 
rhand -17.590565 -6.038249 
rfingers 0.000000 
rthumb 8.665455 -35.840411 
lclavicle 0.000000 0.000000 
lhumerus -18.488478 16.495826 86.319942 
lradius 37.696044 
lwrist -35.058312 
lhand -10.447314 4.873277 
lfingers 0.000000 
lthumb 15.552827 34.267841 
rfemur -36.230079 2.860100 7.119374 
rtibia 28.720808 
rfoot -16.069372 -9.615087 
rtoes -10.797010 
lfemur 15.748745 -3.091156 -31.307623 
ltibia 0.000000 
lfoot -13.590997 4.108370 
ltoes -32.444241 
7
root -7.824718 16.924971 -23.276295 7.185791 4.778341 8.051845
lowerback -11.021504 -3.233045 -10.645403 
upperback 2.075649 -2.770184 -0.963139 
thorax 8.949808 -1.874222 4.420254 
lowerneck -5.391264 -4.519423 -6.257220 
upperneck 7.894378 -6.237144 7.432435 
head 3.661146 -2.974088 2.964444 
rclavicle 0.000000 0.000000 
rhumerus -46.730522 -32.660975 -70.560380 
rradius 33.701998 
rwrist 35.624396 
rhand -17.672077 -6.219460 
rfingers 0.000000 
rthumb 8.586797 -36.024883 
lclavicle 0.000000 0.000000 
lhumerus -18.626158 16.617906 86.269735 
lradius 37.488378 
lwrist -35.318474 
lhand -10.353766 4.911384 
lfingers 0.000000 
lthumb 15.642935 34.298932 
rfemur -36.130347 2.679071 7.407052 
rtibia 28.828402 
rfoot -15.462275 -9.383157 
rtoes -8.605563 
lfemur 15.993792 -3.198173 -31.053633 
ltibia 0.000000 
lfoot -13.019729 4.231119 
ltoes -33.057313 
8
root -7.844476 16.934428 -23.174110 7.106936 4.824263 7.705225
lowerback -11.110229 -3.197581 -10.380051 
upperback 2.083335 -2.753819 -0.859540 
thorax 8.996356 -1.856710 4.384807 
lowerneck -5.220058 -4.556802 -6.173544 
upperneck 7.753225 -6.284256 7.322584 
head 3.587448 -3.003928 2.919285 
rclavicle 0.000000 0.000000 
rhumerus -46.679827 -32.718880 -70.568750 
rradius 33.653438 
rwrist 35.820892 
rhand -17.872335 -6.307906 
rfingers 0.000000 
rthumb 8.393576 -36.121088 
lclavicle 0.000000 0.000000 
lhumerus -18.852550 16.665754 86.234823 
lradius 37.374416 
lwrist -35.135524 
lhand -10.323109 5.129166 
lfingers 0.000000 
lthumb 15.672502 34.514419 
rfemur -35.867736 3.029344 7.788321 
rtibia 28.956589 
rfoot -15.018558 -9.381328 
rtoes -4.427229 
lfemur 16.366266 -3.222813 -30.576107 
ltibia 0.012830 
lfoot -12.392482 4.438196 
ltoes -33.940233 
9
root -7.858980 16.940521 -23.072986 7.203380 4.918447 7.468400
lowerback -11.340058 -3.209822 -10.170055 
upperback 2.031137 -2.780857 -0.752037 
thorax 9.069116 -1.861909 4.371550 
lowerneck -5.344711 -4.485416 -6.477254 
upperneck 8.016999 -6.197086 7.575324 
head 3.698636 -2.955501 3.046344 
rclavicle 0.000000 0.000000 
rhumerus -46.632951 -32.703909 -70.489625 
rradius 33.627082 
rwrist 35.943740 
rhand -17.888260 -6.399715 
rfingers 0.000000 
rthumb 8.378166 -36.213564 
lclavicle 0.000000 0.000000 
lhumerus -19.075579 17.139312 86.160549 
lradius 37.058535 
lwrist -35.728511 
lhand -10.374045 4.939031 
lfingers 0.000000 
lthumb 15.623404 34.328127 
rfemur -35.817695 2.989990 8.127134 
rtibia 29.159625 
rfoot -14.489519 -9.230425 
rtoes -2.325595 
lfemur 15.104682 -3.341420 -30.212226 
ltibia 2.869177 
lfoot -13.193206 4.114469 
ltoes -34.143889 
